<svg width="1920" height="1080" viewBox="0 0 1920 1080" fill="none" xmlns="http://www.w3.org/2000/svg">
<path d="M909 490.106C909 479.819 898.88 472.584 889.146 475.914L466.183 620.576C459.623 622.82 455.456 629.266 456.102 636.168L482.129 913.991C482.978 923.049 491.63 929.272 500.487 927.196L897.423 834.152C904.205 832.562 909 826.513 909 819.548V490.106Z" fill="url(#paint0_linear_719_2)"/>
<path d="M1463.83 450.894C1464.41 440.374 1454.26 432.541 1444.23 435.782L1018.75 573.367C1012.42 575.414 1008.19 581.389 1008.37 588.041L1016.78 901.881C1017.03 911.214 1025.65 918.053 1034.8 916.172L1431.16 834.626C1437.82 833.255 1442.73 827.567 1443.11 820.772L1463.83 450.894Z" fill="url(#paint1_linear_719_2)"/>
<defs>
<linearGradient id="paint0_linear_719_2" x1="682" y1="469.123" x2="682" y2="931.123" gradientUnits="userSpaceOnUse">
<stop stop-color="#8CC1D2"/>
<stop offset="1" stop-color="#0063F7"/>
</linearGradient>
<linearGradient id="paint1_linear_719_2" x1="1241.4" y1="416.526" x2="1212.6" y2="930.72" gradientUnits="userSpaceOnUse">
<stop stop-color="#D7A8FF"/>
<stop offset="1" stop-color="#7900A4"/>
</linearGradient>
</defs>
</svg>
