<?xml version="1.0" standalone="no"?>
<!DOCTYPE svg PUBLIC "-//W3C//DTD SVG 20010904//EN"
 "http://www.w3.org/TR/2001/REC-SVG-20010904/DTD/svg10.dtd">
<svg version="1.0" xmlns="http://www.w3.org/2000/svg"
 width="400.000000pt" height="400.000000pt" viewBox="0 0 400.000000 400.000000"
 preserveAspectRatio="xMidYMid meet">
<metadata>
Created by potrace 1.14, written by Peter Selinger 2001-2017
</metadata>
<g transform="translate(0.000000,400.000000) scale(0.100000,-0.100000)"
fill="#000000" stroke="none">
<path d="M1740 3710 c-69 -13 -132 -60 -166 -125 -11 -21 -64 -181 -80 -240
-4 -13 -176 -541 -201 -615 l-18 -55 -180 -53 c-99 -30 -200 -60 -225 -67
-340 -100 -518 -158 -546 -177 -65 -47 -97 -111 -97 -200 0 -95 50 -155 243
-288 12 -8 45 -32 73 -53 29 -20 61 -43 72 -51 11 -8 118 -85 237 -172 l218
-157 -5 -186 c-3 -102 -7 -269 -10 -371 -8 -292 -8 -415 0 -441 42 -130 208
-201 325 -139 33 17 113 74 360 255 113 82 215 157 227 165 12 8 61 43 109 78
l87 64 116 -40 c119 -41 210 -73 461 -162 80 -29 183 -65 230 -82 96 -33 175
-39 230 -16 87 37 141 119 142 213 0 46 -36 169 -147 500 -75 223 -146 448
-143 455 2 4 13 20 26 36 178 226 548 717 560 744 24 55 18 152 -13 206 -27
46 -71 85 -120 105 -22 9 -158 12 -517 13 l-487 1 -45 65 c-25 36 -49 70 -53
75 -4 6 -26 37 -49 70 -229 336 -382 556 -407 582 -47 50 -134 76 -207 63z"/>
</g>
</svg>
